<svg width="226" height="20" viewBox="0 0 226 20" fill="none" xmlns="http://www.w3.org/2000/svg">
<g clip-path="url(#clip0_6349_1378)">
<path d="M42.7802 19.1129C41.3945 19.1129 40.0088 18.8528 38.623 18.3325C37.2373 17.8123 36.0726 17.1257 35.1289 16.2728L37.2203 13.1896C37.9684 13.8804 38.8419 14.437 39.8408 14.8591C40.8398 15.2813 41.8111 15.4924 42.7547 15.4924C43.5879 15.4924 44.2956 15.3261 44.878 14.9935C45.4603 14.6608 45.7515 14.2344 45.7515 13.7141C45.7515 13.5094 45.7111 13.3239 45.6303 13.1576C45.5496 12.9913 45.4136 12.8399 45.2223 12.7034C45.031 12.567 44.8482 12.4497 44.6739 12.3516C44.4997 12.2535 44.2425 12.1512 43.9024 12.0446C43.5624 11.938 43.2882 11.8569 43.0799 11.8015C42.8716 11.7461 42.5549 11.6672 42.1299 11.5648C37.9301 10.5499 35.8303 8.62661 35.8303 5.795C35.8303 4.1745 36.4679 2.86957 37.7431 1.88022C39.0183 0.890858 40.6974 0.396179 42.7802 0.396179C44.115 0.396179 45.337 0.600874 46.4465 1.01026C47.5559 1.41965 48.4592 1.95698 49.1563 2.62223L47.269 5.71824C46.7419 5.21503 46.066 4.80564 45.2414 4.49007C44.4168 4.1745 43.5879 4.01672 42.7547 4.01672C41.9471 4.01672 41.284 4.1681 40.7654 4.47088C40.2468 4.77366 39.9875 5.16386 39.9875 5.64148C39.9875 5.92293 40.0768 6.1788 40.2553 6.40908C40.4338 6.63937 40.691 6.83553 41.0268 6.99758C41.3626 7.15963 41.7069 7.29609 42.0597 7.40697C42.4125 7.51785 42.8185 7.62019 43.2776 7.71401C43.5921 7.78224 43.8854 7.85261 44.1575 7.9251C44.4295 7.9976 44.8036 8.11701 45.2797 8.28332C45.7557 8.44963 46.1851 8.62874 46.5676 8.82064C46.9502 9.01254 47.3583 9.26415 47.7918 9.57545C48.2254 9.88676 48.5889 10.2237 48.8822 10.5861C49.1755 10.9486 49.4199 11.3836 49.6154 11.8911C49.8109 12.3985 49.9087 12.9423 49.9087 13.5222C49.9087 14.6054 49.5942 15.5756 48.965 16.4327C48.3359 17.2899 47.4815 17.9509 46.4019 18.4157C45.3222 18.8805 44.115 19.1129 42.7802 19.1129ZM72.2221 0.716015H76.2646V18.7931H72.2221V11.616H64.9916V18.7931H60.9364V0.716015H64.9916V7.79077H72.2221V0.716015ZM91.946 14.9679H100.248V18.7931H87.8908V0.716015H100.12V4.54125H91.946V7.79077H99.2531V11.616H91.946V14.9679ZM121.574 18.7931L117.863 13.1961H115.912V18.7931H111.856V0.716015H119.673C121.467 0.716015 122.959 1.29172 124.149 2.44313C125.34 3.59453 125.935 5.03592 125.935 6.7673C125.935 8.49868 125.599 9.70566 124.927 10.6566C124.256 11.6076 123.355 12.3049 122.224 12.7484L126.432 18.7931H121.574ZM115.912 4.54125V9.65236H119.584C120.205 9.65236 120.725 9.437 121.146 9.00629C121.567 8.57558 121.832 7.9634 121.832 7.09004C121.832 6.21667 121.569 5.62869 121.153 5.19371C120.736 4.75873 120.213 4.54125 119.584 4.54125H115.912ZM141.333 14.9679H149.018V18.7931H137.278V0.716015H141.333V14.9679ZM169.553 18.3965C168.38 18.8741 167.126 19.1129 165.791 19.1129C164.456 19.1129 163.198 18.872 162.017 18.3901C160.835 17.9082 159.823 17.2536 158.981 16.4263C158.14 15.599 157.477 14.6075 156.992 13.4519C156.508 12.2962 156.265 11.0616 156.265 9.74817C156.265 8.43471 156.508 7.20014 156.992 6.04447C157.477 4.8888 158.14 3.89731 158.981 3.07C159.823 2.2427 160.835 1.59023 162.017 1.11261C163.198 0.63499 164.456 0.396179 165.791 0.396179C167.568 0.396179 169.185 0.803436 170.643 1.61795C172.101 2.43246 173.247 3.55402 174.08 4.98262C174.913 6.41122 175.33 7.99973 175.33 9.74817C175.33 11.0616 175.085 12.2962 174.597 13.4519C174.108 14.6075 173.44 15.599 172.594 16.4263C171.749 17.2536 170.735 17.9104 169.553 18.3965ZM161.953 13.6502C162.981 14.6822 164.261 15.1982 165.791 15.1982C167.321 15.1982 168.601 14.68 169.63 13.6438C170.658 12.6075 171.173 11.309 171.173 9.74817C171.173 8.18737 170.658 6.88884 169.63 5.85257C168.601 4.8163 167.321 4.29817 165.791 4.29817C164.261 4.29817 162.981 4.8163 161.953 5.85257C160.924 6.88884 160.41 8.18737 160.41 9.74817C160.41 11.309 160.924 12.6096 161.953 13.6502ZM192.13 19.1129C190.796 19.1129 189.537 18.872 188.356 18.3901C187.174 17.9082 186.162 17.2536 185.321 16.4263C184.479 15.599 183.816 14.6075 183.331 13.4519C182.847 12.2962 182.604 11.0616 182.604 9.74817C182.604 8.43471 182.847 7.20014 183.331 6.04447C183.816 4.8888 184.479 3.89731 185.321 3.07C186.162 2.2427 187.174 1.59023 188.356 1.11261C189.537 0.63499 190.796 0.396179 192.13 0.396179C193.805 0.396179 195.337 0.756527 196.727 1.47722C198.117 2.19792 199.242 3.19367 200.1 4.46449L196.594 6.63937C196.101 5.91441 195.463 5.34297 194.681 4.92505C193.899 4.50713 193.048 4.29817 192.13 4.29817C190.6 4.29817 189.321 4.8163 188.292 5.85257C187.263 6.88884 186.749 8.18737 186.749 9.74817C186.749 11.309 187.263 12.6075 188.292 13.6438C189.321 14.68 190.6 15.1982 192.13 15.1982C193.057 15.1982 193.909 14.9913 194.687 14.5777C195.465 14.164 196.101 13.5947 196.594 12.8698L200.1 15.0446C199.242 16.3155 198.117 17.3112 196.727 18.0319C195.337 18.7526 193.805 19.1129 192.13 19.1129ZM220.721 18.7931L215.263 12.3452L213.758 14.0468V18.7931H209.703V0.716015H213.758V8.52L220.466 0.716015H225.605L217.877 9.41554L226 18.7931H220.721Z" fill="white"/>
<path fill-rule="evenodd" clip-rule="evenodd" d="M10.6495 10.3558L22.1864 1.42839C23.3696 0.476131 24.4937 0 25.5587 0C27.1561 0 29.1085 0 29.641 0C30.1735 0 30.4397 0.357098 30.4397 0.714196C30.4397 1.07129 30.1735 1.42839 29.641 1.42839C29.1085 1.42839 27.6886 1.42839 26.4461 1.42839C25.2037 1.42839 24.4937 1.96404 23.4288 3.03533L10.6495 16.6051C9.1112 18.3906 7.39545 19.2535 5.50222 19.194C2.66236 19.1048 0 17.4978 0 14.641C0 11.9625 0 9.28393 0 6.60538C0 6.21146 0.31865 5.89212 0.711724 5.89212H9.93773C10.3308 5.89212 10.6495 6.21146 10.6495 6.60538V10.3558Z" fill="white"/>
</g>
<defs>
<clipPath id="clip0_6349_1378">
<rect width="226" height="19.1969" fill="white"/>
</clipPath>
</defs>
</svg>
