<svg width="30" height="30" viewBox="0 0 30 30" fill="none" xmlns="http://www.w3.org/2000/svg">
<path d="M14.5702 29.1408C22.6171 29.1408 29.1404 22.6175 29.1404 14.5707C29.1404 6.52378 22.6171 0.000488281 14.5702 0.000488281C6.52329 0.000488281 0 6.52378 0 14.5707C0 22.6175 6.52329 29.1408 14.5702 29.1408Z" fill="url(#paint0_linear_6292_21878)"/>
<path d="M14.5698 5.66089C11.9958 5.66089 5.66016 11.9965 5.66016 14.5706C5.66016 17.1446 11.9982 23.4802 14.5698 23.4802C17.1415 23.4802 23.4795 17.1422 23.4795 14.5706C23.4795 11.9989 17.1415 5.66089 14.5698 5.66089ZM12.9015 11.0713L16.4372 10.0417C16.5174 10.0174 16.6048 10.0271 16.6776 10.0684L17.2507 10.3841C17.3236 10.4253 17.3794 10.4909 17.4013 10.5735L17.6441 11.4113L14.8248 14.1067C14.7374 14.1844 14.6184 14.2184 14.5043 14.199L14.1109 14.1359C13.9846 14.1164 13.8753 14.0315 13.8195 13.9149L12.6903 11.4768C12.6296 11.3068 12.7243 11.1198 12.8967 11.0713H12.9015ZM11.9666 18.9902L11.7723 18.8833C11.7383 18.8639 11.7116 18.8323 11.7019 18.7959L10.0069 12.9654C9.97293 12.8464 9.98507 12.7153 10.0458 12.606L10.41 11.9406C10.4707 11.8314 10.5727 11.7488 10.6917 11.7148L11.7553 11.404C11.8088 11.3894 11.8671 11.404 11.9059 11.4452L12.2653 11.8314C12.2847 11.8508 12.2969 11.8751 12.3017 11.9042L13.0569 15.6585C13.0618 15.6803 13.0618 15.7046 13.0545 15.7265L12.1803 18.8979C12.1536 18.9902 12.0492 19.0339 11.9666 18.9877V18.9902ZM13.1225 19.1019C13.0667 19.1189 13.0545 19.1116 13.0035 19.08C12.9914 19.0727 12.9744 19.063 12.9574 19.0533L12.7583 18.9197C12.7194 18.8663 12.717 18.8226 12.7461 18.7643L13.8923 16.4185C13.953 16.2971 14.0623 16.2048 14.1934 16.1684L14.9948 15.9353C15.1356 15.894 15.2886 15.9207 15.41 16.0033L17.8651 17.7226L13.1249 19.1019H13.1225ZM19.1157 16.7925L18.8097 17.351C18.7685 17.4239 18.7029 17.4797 18.6203 17.5016L18.4455 17.5526L15.6602 15.2092C15.6213 15.1752 15.6116 15.1509 15.597 15.0999L15.5072 14.6798C15.4877 14.6143 15.5145 14.59 15.5533 14.5536C15.5654 14.5414 15.58 14.5293 15.5946 14.5123L17.8603 12.147L19.1424 16.5521C19.1667 16.6322 19.157 16.7197 19.1157 16.7925Z" fill="url(#paint1_linear_6292_21878)"/>
<defs>
<linearGradient id="paint0_linear_6292_21878" x1="14.5702" y1="0.136477" x2="14.5702" y2="29.2015" gradientUnits="userSpaceOnUse">
<stop stop-color="#3D1F89"/>
<stop offset="1" stop-color="#16033D"/>
</linearGradient>
<linearGradient id="paint1_linear_6292_21878" x1="14.5698" y1="5.66089" x2="14.5698" y2="23.4802" gradientUnits="userSpaceOnUse">
<stop stop-color="#836EF9"/>
<stop offset="1" stop-color="#18F3E6"/>
</linearGradient>
</defs>
</svg>
