<svg width="64" height="64" viewBox="0 0 64 64" fill="none" xmlns="http://www.w3.org/2000/svg">
<path d="M32 64C49.6731 64 64 49.6731 64 32C64 14.3269 49.6731 0 32 0C14.3269 0 0 14.3269 0 32C0 49.6731 14.3269 64 32 64Z" fill="url(#paint0_radial_6292_21874)"/>
<path d="M22.4162 15.2063C22.4112 14.5447 22.6238 14.3007 23.2766 14.2076C25.4539 13.8957 27.6236 13.5334 29.7921 13.1624C30.3518 13.0668 30.5354 13.2177 30.5291 13.7938C30.5052 15.9723 30.5203 18.1521 30.5228 20.3319C30.5228 21.1 30.8973 21.4845 31.6461 21.4853C34.2447 21.4853 36.8434 21.484 39.442 21.4878C40.2608 21.4891 40.2797 21.5117 40.281 22.3431C40.2835 24.0827 40.2684 25.8222 40.291 27.5605C40.2973 28.0825 40.1049 28.2511 39.5942 28.2486C36.8069 28.2322 34.0196 28.2486 31.2323 28.2372C30.7782 28.236 30.5228 28.3429 30.5266 28.8599C30.553 32.3377 30.5581 35.8156 30.592 39.2947C30.5971 39.7714 30.6889 40.2544 30.792 40.7235C31.27 42.9033 32.4272 43.8656 34.656 43.9385C36.3679 43.9938 38.0421 43.7423 39.6709 43.2178C40.1036 43.0782 40.3275 43.1335 40.4118 43.6266C40.7048 45.3611 41.0168 47.0931 41.34 48.8238C41.4105 49.2024 41.3111 49.4062 40.9476 49.5433C37.1943 50.9621 33.3378 51.2753 29.46 50.3005C25.6853 49.3521 23.503 46.7812 22.8527 42.9675C22.6074 41.5285 22.4703 40.0556 22.449 38.5966C22.3323 30.7791 22.4696 23.0778 22.4162 15.2063Z" fill="white"/>
<defs>
<radialGradient id="paint0_radial_6292_21874" cx="0" cy="0" r="1" gradientUnits="userSpaceOnUse" gradientTransform="translate(51.2558 49.8094) rotate(-142.412) scale(57.2224)">
<stop offset="0.142317" stop-color="#9877FF"/>
<stop offset="0.53125" stop-color="#A858FF"/>
</radialGradient>
</defs>
</svg>
