<svg width="162" height="28" viewBox="0 0 162 28" fill="none" xmlns="http://www.w3.org/2000/svg">
<path d="M13.862 27.724C21.5178 27.724 27.724 21.5178 27.724 13.862C27.724 6.20624 21.5178 0 13.862 0C6.20624 0 0 6.20624 0 13.862C0 21.5178 6.20624 27.724 13.862 27.724Z" fill="url(#paint0_radial_6256_21571)"/>
<path d="M9.70999 6.58722C9.70782 6.30062 9.7999 6.19491 10.0827 6.15459C11.0259 6.01947 11.9658 5.86254 12.9051 5.70181C13.1476 5.6604 13.2271 5.72578 13.2244 5.97533C13.2141 6.91905 13.2206 7.8633 13.2217 8.80756C13.2217 9.1403 13.3839 9.30684 13.7082 9.30721C14.8339 9.30721 15.9596 9.30666 17.0853 9.3083C17.4401 9.30884 17.4482 9.31865 17.4488 9.67881C17.4499 10.4324 17.4433 11.1859 17.4531 11.9389C17.4559 12.165 17.3725 12.2381 17.1513 12.237C15.9438 12.2299 14.7364 12.237 13.529 12.2321C13.3323 12.2315 13.2217 12.2778 13.2233 12.5018C13.2348 14.0083 13.2369 15.5149 13.2516 17.022C13.2538 17.2285 13.2936 17.4377 13.3383 17.641C13.5453 18.5852 14.0466 19.0021 15.0121 19.0337C15.7537 19.0576 16.4789 18.9487 17.1845 18.7215C17.3719 18.661 17.4689 18.685 17.5054 18.8985C17.6324 19.6499 17.7675 20.4002 17.9076 21.1499C17.9381 21.3139 17.895 21.4022 17.7376 21.4616C16.1117 22.0762 14.4411 22.2119 12.7613 21.7896C11.1261 21.3788 10.1808 20.2651 9.89906 18.613C9.79281 17.9897 9.73342 17.3517 9.72416 16.7196C9.67362 13.3332 9.73309 9.99707 9.70999 6.58722Z" fill="white"/>
<path d="M155.007 21.4974C154.084 21.4974 153.256 21.3462 152.523 21.0436C151.806 20.7251 151.193 20.2871 150.684 19.7297C150.19 19.1564 149.808 18.4716 149.537 17.6753C149.266 16.8631 149.131 15.9553 149.131 14.952C149.131 13.9646 149.258 13.0728 149.513 12.2765C149.784 11.4802 150.166 10.8034 150.66 10.246C151.153 9.67268 151.759 9.23473 152.475 8.93214C153.192 8.61363 154.004 8.45438 154.912 8.45438C155.883 8.45438 156.727 8.6216 157.444 8.95603C158.161 9.29047 158.75 9.74435 159.212 10.3177C159.674 10.891 160.016 11.5599 160.239 12.3243C160.478 13.0728 160.597 13.877 160.597 14.737V15.7403H152.308V16.0509C152.308 16.9586 152.563 17.6912 153.072 18.2486C153.582 18.7901 154.339 19.0608 155.342 19.0608C156.106 19.0608 156.727 18.9016 157.205 18.5831C157.699 18.2645 158.137 17.8584 158.519 17.3648L160.167 19.2042C159.658 19.9208 158.957 20.4862 158.065 20.9002C157.189 21.2984 156.17 21.4974 155.007 21.4974ZM154.96 10.7477C154.147 10.7477 153.502 11.0184 153.025 11.5599C152.547 12.1013 152.308 12.8021 152.308 13.662V13.8532H157.42V13.6382C157.42 12.7782 157.205 12.0854 156.775 11.5599C156.361 11.0184 155.756 10.7477 154.96 10.7477Z" fill="white"/>
<path d="M140.943 21.2107V8.74091H144.001V11.3209H144.121C144.2 10.9864 144.32 10.6679 144.479 10.3653C144.654 10.0468 144.877 9.76811 145.148 9.52922C145.418 9.29034 145.737 9.09923 146.103 8.9559C146.485 8.81257 146.923 8.74091 147.417 8.74091H148.086V11.6314H147.13C146.095 11.6314 145.315 11.7827 144.789 12.0853C144.264 12.3879 144.001 12.8816 144.001 13.5664V21.2107H140.943Z" fill="white"/>
<path d="M137.012 21.2108C136.343 21.2108 135.81 21.0197 135.412 20.6375C135.029 20.2393 134.79 19.7138 134.695 19.0608H134.552C134.345 19.873 133.923 20.4862 133.286 20.9002C132.648 21.2984 131.86 21.4974 130.921 21.4974C129.647 21.4974 128.667 21.163 127.982 20.4941C127.297 19.8253 126.955 18.9334 126.955 17.8186C126.955 16.5287 127.417 15.5731 128.341 14.952C129.264 14.315 130.578 13.9965 132.282 13.9965H134.408V13.0887C134.408 12.388 134.225 11.8465 133.859 11.4643C133.493 11.0821 132.903 10.891 132.091 10.891C131.374 10.891 130.793 11.0503 130.347 11.3688C129.917 11.6713 129.551 12.0376 129.248 12.4676L127.433 10.8432C127.895 10.1266 128.508 9.55324 129.272 9.12325C130.037 8.67733 131.048 8.45438 132.306 8.45438C133.994 8.45438 135.276 8.83659 136.152 9.60102C137.028 10.3654 137.466 11.4643 137.466 12.8976V18.7742H138.708V21.2108H137.012ZM131.948 19.2758C132.633 19.2758 133.214 19.1245 133.692 18.8219C134.169 18.5194 134.408 18.0734 134.408 17.4842V15.8359H132.449C130.857 15.8359 130.061 16.3455 130.061 17.3648V17.7709C130.061 18.2805 130.22 18.6627 130.538 18.9175C130.873 19.1564 131.343 19.2758 131.948 19.2758Z" fill="white"/>
<path d="M121.487 19.1324H121.368C121.256 19.4509 121.105 19.7535 120.914 20.0401C120.739 20.3109 120.508 20.5577 120.221 20.7807C119.95 21.0036 119.616 21.1788 119.218 21.3062C118.836 21.4336 118.39 21.4973 117.88 21.4973C116.59 21.4973 115.603 21.0753 114.918 20.2312C114.233 19.3872 113.891 18.1848 113.891 16.6241V8.74091H116.948V16.3135C116.948 17.1735 117.116 17.8344 117.45 18.2963C117.784 18.7422 118.318 18.9651 119.051 18.9651C119.353 18.9651 119.648 18.9253 119.934 18.8457C120.237 18.7661 120.5 18.6466 120.723 18.4874C120.946 18.3122 121.129 18.1052 121.272 17.8663C121.415 17.6115 121.487 17.3168 121.487 16.9824V8.74091H124.545V21.2107H121.487V19.1324Z" fill="white"/>
<path d="M107.688 19.1325H107.569C107.346 19.8491 106.924 20.4225 106.303 20.8525C105.682 21.2825 104.957 21.4974 104.129 21.4974C102.552 21.4974 101.342 20.9321 100.498 19.8014C99.6699 18.6707 99.2559 17.0542 99.2559 14.952C99.2559 12.8658 99.6699 11.2652 100.498 10.1505C101.342 9.01974 102.552 8.45438 104.129 8.45438C104.957 8.45438 105.682 8.66937 106.303 9.09936C106.924 9.51343 107.346 10.0788 107.569 10.7954H107.688V8.74104H110.746V25.9885H107.688V19.1325ZM105.109 18.9653C105.841 18.9653 106.454 18.7901 106.948 18.4397C107.442 18.0894 107.688 17.5877 107.688 16.9348V12.9693C107.688 12.3641 107.442 11.8784 106.948 11.5121C106.454 11.1458 105.841 10.9627 105.109 10.9627C104.312 10.9627 103.667 11.2334 103.174 11.7749C102.696 12.3004 102.457 13.0091 102.457 13.9009V16.0509C102.457 16.9427 102.696 17.6514 103.174 18.177C103.667 18.7025 104.312 18.9653 105.109 18.9653Z" fill="white"/>
<path d="M92.3533 21.4974C91.1588 21.4974 90.1555 21.2984 89.3433 20.9002C88.5311 20.4862 87.8145 19.9208 87.1934 19.2042L89.0567 17.3886C89.5185 17.9142 90.0202 18.3282 90.5616 18.6308C91.119 18.9334 91.756 19.0847 92.4727 19.0847C93.2053 19.0847 93.7308 18.9573 94.0493 18.7025C94.3838 18.4477 94.551 18.0973 94.551 17.6514C94.551 17.2851 94.4315 16.9985 94.1927 16.7914C93.9697 16.5685 93.5795 16.4172 93.0221 16.3376L91.7799 16.1703C90.4263 15.9951 89.3911 15.6129 88.6744 15.0237C87.9737 14.4185 87.6233 13.5426 87.6233 12.396C87.6233 11.7908 87.7348 11.2493 87.9578 10.7716C88.1807 10.2779 88.4993 9.86379 88.9133 9.52936C89.3274 9.17899 89.8211 8.91622 90.3944 8.74104C90.9837 8.54993 91.6366 8.45438 92.3533 8.45438C92.9584 8.45438 93.4919 8.50215 93.9538 8.59771C94.4315 8.67734 94.8615 8.80474 95.2438 8.97992C95.626 9.13918 95.9763 9.34621 96.2948 9.60102C96.6134 9.8399 96.9239 10.1106 97.2265 10.4132L95.4349 12.2049C95.0686 11.8226 94.6306 11.5041 94.121 11.2493C93.6114 10.9945 93.054 10.8671 92.4488 10.8671C91.7799 10.8671 91.2942 10.9865 90.9916 11.2254C90.705 11.4643 90.5616 11.7749 90.5616 12.1571C90.5616 12.5711 90.6811 12.8897 90.92 13.1126C91.1748 13.3196 91.5968 13.4709 92.186 13.5665L93.4521 13.7337C96.1436 14.1159 97.4893 15.3422 97.4893 17.4125C97.4893 18.0177 97.3619 18.5751 97.107 19.0847C96.8682 19.5784 96.5258 20.0084 96.0798 20.3747C95.6339 20.7251 95.0925 21.0038 94.4554 21.2108C93.8343 21.4019 93.1336 21.4974 92.3533 21.4974Z" fill="white"/>
<path d="M74.4609 21.2108V8.74104H77.5187V10.8193H77.6381C77.8929 10.1505 78.291 9.59306 78.8325 9.14714C79.3899 8.6853 80.1543 8.45438 81.1258 8.45438C82.4158 8.45438 83.4032 8.8764 84.088 9.72046C84.7728 10.5645 85.1152 11.7669 85.1152 13.3276V21.2108H82.0575V13.6382C82.0575 12.7463 81.8982 12.0775 81.5797 11.6315C81.2612 11.1856 80.7356 10.9627 80.003 10.9627C79.6845 10.9627 79.374 11.0104 79.0714 11.106C78.7847 11.1856 78.522 11.313 78.2831 11.4882C78.0601 11.6475 77.877 11.8545 77.7336 12.1093C77.5903 12.3482 77.5187 12.6348 77.5187 12.9693V21.2108H74.4609Z" fill="white"/>
<path d="M53.9102 8.74091H56.8484L58.1145 13.8769L59.0939 18.1529H59.1895L60.3361 13.8769L61.7933 8.74091H64.5644L66.0694 13.8769L67.2399 18.1529H67.3354L68.3149 13.8769L69.5571 8.74091H72.3998L68.9837 21.2107H65.6871L64.0866 15.7163L63.155 12.3242H63.0833L62.1755 15.7163L60.5989 21.2107H57.3501L53.9102 8.74091Z" fill="white"/>
<path d="M47.0622 21.4974C46.1704 21.4974 45.3662 21.3462 44.6495 21.0436C43.9488 20.741 43.3436 20.303 42.834 19.7297C42.3403 19.1564 41.9581 18.4716 41.6874 17.6753C41.4166 16.8631 41.2812 15.9553 41.2812 14.952C41.2812 13.9487 41.4166 13.0489 41.6874 12.2526C41.9581 11.4564 42.3403 10.7795 42.834 10.2221C43.3436 9.6488 43.9488 9.21084 44.6495 8.90826C45.3662 8.60567 46.1704 8.45438 47.0622 8.45438C47.9541 8.45438 48.7583 8.60567 49.475 8.90826C50.1916 9.21084 50.7968 9.6488 51.2905 10.2221C51.8001 10.7795 52.1903 11.4564 52.461 12.2526C52.7318 13.0489 52.8671 13.9487 52.8671 14.952C52.8671 15.9553 52.7318 16.8631 52.461 17.6753C52.1903 18.4716 51.8001 19.1564 51.2905 19.7297C50.7968 20.303 50.1916 20.741 49.475 21.0436C48.7583 21.3462 47.9541 21.4974 47.0622 21.4974ZM47.0622 19.0369C47.8745 19.0369 48.5115 18.7901 48.9733 18.2964C49.4352 17.8027 49.6661 17.0781 49.6661 16.1226V13.8054C49.6661 12.8658 49.4352 12.1491 48.9733 11.6554C48.5115 11.1617 47.8745 10.9149 47.0622 10.9149C46.266 10.9149 45.6369 11.1617 45.1751 11.6554C44.7132 12.1491 44.4823 12.8658 44.4823 13.8054V16.1226C44.4823 17.0781 44.7132 17.8027 45.1751 18.2964C45.6369 18.7901 46.266 19.0369 47.0622 19.0369Z" fill="white"/>
<path d="M37.4081 21.2108C36.357 21.2108 35.5528 20.9401 34.9954 20.3986C34.4539 19.8412 34.1832 19.0529 34.1832 18.0337V11.1777H32.3438V8.74109H33.2993C33.7611 8.74109 34.0717 8.63757 34.2309 8.43054C34.4061 8.20758 34.4937 7.8811 34.4937 7.45111V5.32504H37.2409V8.74109H39.7969V11.1777H37.2409V18.7742H39.6058V21.2108H37.4081Z" fill="white"/>
<defs>
<radialGradient id="paint0_radial_6256_21571" cx="0" cy="0" r="1" gradientUnits="userSpaceOnUse" gradientTransform="translate(22.2034 21.5768) rotate(-142.412) scale(24.7881)">
<stop offset="0.142317" stop-color="#9877FF"/>
<stop offset="0.53125" stop-color="#A858FF"/>
</radialGradient>
</defs>
</svg>
