<svg width="30" height="30" viewBox="0 0 30 30" fill="none" xmlns="http://www.w3.org/2000/svg">
<path d="M14.5702 29.1404C22.6171 29.1404 29.1404 22.6171 29.1404 14.5702C29.1404 6.52329 22.6171 0 14.5702 0C6.52329 0 0 6.52329 0 14.5702C0 22.6171 6.52329 29.1404 14.5702 29.1404Z" fill="#EB7B13"/>
<path d="M14.5708 28.0634C22.0226 28.0634 28.0634 22.0226 28.0634 14.5708C28.0634 7.119 22.0226 1.07812 14.5708 1.07812C7.119 1.07812 1.07813 7.119 1.07813 14.5708C1.07813 22.0226 7.119 28.0634 14.5708 28.0634Z" fill="#102231"/>
<path d="M14.5583 5.59062C15.056 5.59781 15.5092 5.77332 15.948 5.98623C16.8241 6.41062 17.6038 6.97887 18.3547 7.59028C19.0107 8.124 19.6337 8.69656 20.222 9.30365C21.2089 10.3236 22.1282 11.3983 22.8504 12.6268C23.1611 13.1562 23.4316 13.7043 23.5265 14.3215C23.5999 14.802 23.4589 15.2436 23.2791 15.6738C22.9309 16.5096 22.426 17.2519 21.8692 17.9597C20.4278 19.7896 18.7791 21.3994 16.8212 22.6769C16.4313 22.9315 16.017 23.1401 15.5912 23.3286C14.8445 23.6595 14.1195 23.6062 13.3887 23.2725C12.5744 22.9013 11.8379 22.4108 11.1387 21.8627C9.60803 20.6643 8.25143 19.2948 7.07897 17.7439C6.65746 17.1872 6.29349 16.5959 5.96549 15.9773C5.45335 15.0135 5.47924 14.0784 5.98851 13.1217C6.46756 12.2211 7.05307 11.3968 7.70476 10.6171C8.78659 9.32379 9.98926 8.15565 11.3358 7.13855C12.0709 6.58325 12.8348 6.07399 13.7095 5.75749C13.9828 5.65823 14.2634 5.58342 14.5597 5.58918L14.5583 5.59062ZM15.8113 9.4245C15.4344 9.43744 15.1409 9.5252 14.8532 9.62734C13.6692 10.0503 12.573 10.6516 11.5156 11.3249C10.887 11.7248 10.2784 12.1535 9.75045 12.6858C9.44835 12.9908 9.33326 13.3289 9.45122 13.7504C9.52459 14.0093 9.59365 14.2697 9.69435 14.52C10.2655 15.9558 11.0251 17.2865 11.9357 18.5323C12.2162 18.9164 12.5169 19.2847 12.9024 19.5738C13.0549 19.6889 13.2261 19.7508 13.4203 19.7306C13.7311 19.6976 14.0317 19.617 14.3238 19.5077C15.6818 19.0013 16.9348 18.2949 18.1289 17.4792C18.6007 17.157 19.0539 16.8117 19.4394 16.3859C19.6308 16.173 19.7545 15.9385 19.707 15.6393C19.6581 15.3357 19.5761 15.0422 19.4697 14.7545C19.0712 13.6871 18.5331 12.6887 17.9318 11.7234C17.5016 11.0329 17.0485 10.3553 16.4601 9.78558C16.263 9.59425 16.0559 9.40579 15.8142 9.4245H15.8113Z" fill="#EB7C10"/>
</svg>
