<svg width="30" height="30" viewBox="0 0 30 30" fill="none" xmlns="http://www.w3.org/2000/svg">
<mask id="mask0_6292_21876" style="mask-type:alpha" maskUnits="userSpaceOnUse" x="0" y="0" width="30" height="30">
<circle cx="14.5702" cy="14.5702" r="14.5702" fill="white"/>
</mask>
<g mask="url(#mask0_6292_21876)">
<circle cx="14.5702" cy="14.5702" r="14.5702" fill="#6D53FF"/>
<g filter="url(#filter0_d_6292_21876)">
<path d="M14.5694 5.36792C11.912 5.36792 5.36719 11.9126 5.36719 14.5701C5.36719 17.2276 11.912 23.7724 14.5694 23.7724C17.2267 23.7724 23.7716 17.2275 23.7716 14.5701C23.7716 11.9127 17.2268 5.36792 14.5694 5.36792ZM13.1353 19.8322C12.0148 19.5268 9.00195 14.2567 9.30736 13.1361C9.61277 12.0154 14.8828 9.00267 16.0034 9.30808C17.1241 9.61344 20.1369 14.8835 19.8315 16.0042C19.526 17.1248 14.2559 20.1376 13.1353 19.8322Z" fill="white"/>
</g>
</g>
<defs>
<filter id="filter0_d_6292_21876" x="2.05578" y="5.36792" width="25.0271" height="25.0273" filterUnits="userSpaceOnUse" color-interpolation-filters="sRGB">
<feFlood flood-opacity="0" result="BackgroundImageFix"/>
<feColorMatrix in="SourceAlpha" type="matrix" values="0 0 0 0 0 0 0 0 0 0 0 0 0 0 0 0 0 0 127 0" result="hardAlpha"/>
<feOffset dy="3.3114"/>
<feGaussianBlur stdDeviation="1.6557"/>
<feComposite in2="hardAlpha" operator="out"/>
<feColorMatrix type="matrix" values="0 0 0 0 0 0 0 0 0 0 0 0 0 0 0 0 0 0 0.1 0"/>
<feBlend mode="normal" in2="BackgroundImageFix" result="effect1_dropShadow_6292_21876"/>
<feBlend mode="normal" in="SourceGraphic" in2="effect1_dropShadow_6292_21876" result="shape"/>
</filter>
</defs>
</svg>
