<svg width="90" height="90" viewBox="0 0 90 90" fill="none" xmlns="http://www.w3.org/2000/svg">
<path d="M45 90C69.8528 90 90 69.8528 90 45C90 20.1472 69.8528 0 45 0C20.1472 0 0 20.1472 0 45C0 69.8528 20.1472 90 45 90Z" fill="url(#paint0_radial_4237_113945)"/>
<path d="M31.5223 21.3883C31.5152 20.4579 31.8142 20.1148 32.7322 19.9839C35.7939 19.5452 38.8451 19.0358 41.8945 18.514C42.6817 18.3796 42.9399 18.5918 42.9311 19.4019C42.8974 22.4655 42.9187 25.5308 42.9222 28.5961C42.9222 29.6763 43.4487 30.217 44.5017 30.2181C48.1561 30.2181 51.8104 30.2164 55.4648 30.2217C56.6162 30.2234 56.6428 30.2553 56.6445 31.4245C56.6481 33.8707 56.6269 36.317 56.6587 38.7614C56.6675 39.4955 56.3969 39.7325 55.6788 39.729C51.7591 39.706 47.8395 39.729 43.9198 39.713C43.2813 39.7113 42.9222 39.8616 42.9275 40.5886C42.9647 45.4793 42.9717 50.3701 43.0195 55.2625C43.0266 55.9329 43.1557 56.6121 43.3007 57.2719C43.9729 60.3372 45.6002 61.6904 48.7345 61.793C51.1418 61.8708 53.4961 61.517 55.7867 60.7794C56.3951 60.5831 56.71 60.6609 56.8285 61.3543C57.2406 63.7935 57.6793 66.2291 58.1339 68.663C58.2329 69.1954 58.0932 69.4819 57.582 69.6747C52.3039 71.6699 46.8808 72.1104 41.4276 70.7395C36.1194 69.4059 33.0505 65.7904 32.1361 60.4274C31.7912 58.4039 31.5984 56.3327 31.5683 54.2809C31.4042 43.2875 31.5973 32.4576 31.5223 21.3883Z" fill="white"/>
<defs>
<radialGradient id="paint0_radial_4237_113945" cx="0" cy="0" r="1" gradientUnits="userSpaceOnUse" gradientTransform="translate(72.0785 70.0444) rotate(-142.412) scale(80.469)">
<stop offset="0.142317" stop-color="#9877FF"/>
<stop offset="0.53125" stop-color="#A858FF"/>
</radialGradient>
</defs>
</svg>
