<svg width="90" height="90" viewBox="0 0 90 90" fill="none" xmlns="http://www.w3.org/2000/svg">
<path d="M45 0C69.8528 0 90 20.1472 90 45C90 69.8528 69.8528 90 45 90C20.1472 90 0 69.8528 0 45C0 20.1472 20.1472 0 45 0ZM42.9307 19.3945C42.9395 18.5844 42.6816 18.3714 41.8945 18.5059C38.8452 19.0276 35.7941 19.5369 32.7324 19.9756C31.8144 20.1065 31.5154 20.4505 31.5225 21.3809C31.5974 32.4501 31.4043 43.2802 31.5684 54.2734C31.5984 56.3251 31.7908 58.3965 32.1357 60.4199C33.0503 65.7828 36.1196 69.3978 41.4277 70.7314C46.8809 72.1022 52.304 71.6622 57.582 69.667C58.0932 69.4742 58.2328 69.1876 58.1338 68.6553C57.6792 66.2215 57.2402 63.7858 56.8281 61.3467C56.7096 60.6535 56.3953 60.5753 55.7871 60.7715C53.4965 61.5091 51.1417 61.863 48.7344 61.7852C45.6001 61.6825 43.9729 60.329 43.3008 57.2637C43.1558 56.6041 43.0266 55.9251 43.0195 55.2549C42.9718 50.3625 42.9649 45.4717 42.9277 40.5811C42.9224 39.8541 43.2814 39.7033 43.9199 39.7051C47.8395 39.721 51.7591 39.6977 55.6787 39.7207C56.3967 39.7242 56.6679 39.4877 56.6592 38.7539C56.6273 36.3095 56.6481 33.8631 56.6445 31.417C56.6428 30.2478 56.6162 30.2156 55.4648 30.2139C51.8106 30.2086 48.1562 30.21 44.502 30.21C43.4489 30.2088 42.9219 29.668 42.9219 28.5879C42.9183 25.5228 42.8971 22.4578 42.9307 19.3945Z" fill="white"/>
</svg>
