<svg width="525" height="90" viewBox="0 0 525 90" fill="none" xmlns="http://www.w3.org/2000/svg">
<path d="M45 0C69.8528 0 90 20.1472 90 45C90 69.8528 69.8528 90 45 90C20.1472 90 0 69.8528 0 45C0 20.1472 20.1472 0 45 0ZM42.9307 19.3945C42.9395 18.5844 42.6816 18.3714 41.8945 18.5059C38.8452 19.0276 35.7941 19.5369 32.7324 19.9756C31.8144 20.1065 31.5154 20.4505 31.5225 21.3809C31.5974 32.4501 31.4043 43.2802 31.5684 54.2734C31.5984 56.3251 31.7908 58.3965 32.1357 60.4199C33.0503 65.7828 36.1196 69.3978 41.4277 70.7314C46.8809 72.1022 52.304 71.6622 57.582 69.667C58.0932 69.4742 58.2328 69.1876 58.1338 68.6553C57.6792 66.2215 57.2402 63.7858 56.8281 61.3467C56.7096 60.6535 56.3953 60.5753 55.7871 60.7715C53.4965 61.5091 51.1417 61.863 48.7344 61.7852C45.6001 61.6825 43.9729 60.329 43.3008 57.2637C43.1558 56.6041 43.0266 55.9251 43.0195 55.2549C42.9718 50.3625 42.9649 45.4717 42.9277 40.5811C42.9224 39.8541 43.2814 39.7033 43.9199 39.7051C47.8395 39.721 51.7591 39.6977 55.6787 39.7207C56.3967 39.7242 56.6679 39.4877 56.6592 38.7539C56.6273 36.3095 56.6481 33.8631 56.6445 31.417C56.6428 30.2478 56.6162 30.2156 55.4648 30.2139C51.8106 30.2086 48.1562 30.21 44.502 30.21C43.4489 30.2088 42.9219 29.668 42.9219 28.5879C42.9183 25.5229 42.8971 22.4578 42.9307 19.3945Z" fill="white"/>
<path d="M503.199 69.7868C500.2 69.7868 497.512 69.2956 495.133 68.3133C492.807 67.2794 490.817 65.8576 489.162 64.0482C487.56 62.187 486.319 59.964 485.44 57.379C484.561 54.7424 484.122 51.7955 484.122 48.5385C484.122 45.3332 484.535 42.438 485.362 39.8531C486.241 37.2681 487.482 35.0709 489.085 33.2614C490.687 31.4003 492.652 29.9786 494.978 28.9963C497.305 27.9623 499.941 27.4453 502.888 27.4453C506.042 27.4453 508.782 27.9882 511.108 29.0738C513.435 30.1595 515.348 31.6329 516.847 33.4941C518.346 35.3553 519.458 37.5266 520.182 40.0082C520.957 42.438 521.345 45.0488 521.345 47.8406V51.0976H494.436V52.1057C494.436 55.0526 495.263 57.4307 496.917 59.2402C498.571 60.9979 501.027 61.8768 504.284 61.8768C506.766 61.8768 508.782 61.3598 510.333 60.3259C511.936 59.2919 513.357 57.9736 514.598 56.3709L519.949 62.3421C518.295 64.6686 516.02 66.5039 513.125 67.8481C510.281 69.1405 506.973 69.7868 503.199 69.7868ZM503.043 34.89C500.407 34.89 498.313 35.7688 496.762 37.5266C495.211 39.2844 494.436 41.5591 494.436 44.3509V44.9713H511.031V44.2733C511.031 41.4816 510.333 39.2327 508.937 37.5266C507.593 35.7688 505.628 34.89 503.043 34.89Z" fill="white"/>
<path d="M457.546 68.8514V28.3711H467.473V36.7463H467.86C468.119 35.6606 468.507 34.6267 469.024 33.6444C469.592 32.6104 470.316 31.7057 471.195 30.9302C472.074 30.1547 473.108 29.5343 474.297 29.069C475.538 28.6037 476.959 28.3711 478.562 28.3711H480.733V37.7545H477.631C474.271 37.7545 471.738 38.2456 470.032 39.2279C468.326 40.2102 467.473 41.8128 467.473 44.0359V68.8514H457.546Z" fill="white"/>
<path d="M444.781 68.8562C442.61 68.8562 440.878 68.2358 439.585 66.995C438.344 65.7025 437.569 63.9965 437.259 61.8768H436.793C436.121 64.5135 434.751 66.5039 432.683 67.8481C430.615 69.1405 428.056 69.7868 425.006 69.7868C420.87 69.7868 417.691 68.7011 415.468 66.5297C413.245 64.3584 412.133 61.4632 412.133 57.8443C412.133 53.6567 413.632 50.5548 416.631 48.5385C419.629 46.4705 423.895 45.4366 429.426 45.4366H436.328V42.4897C436.328 40.215 435.734 38.4572 434.545 37.2164C433.355 35.9756 431.443 35.3553 428.806 35.3553C426.48 35.3553 424.592 35.8722 423.145 36.9062C421.749 37.8885 420.56 39.0776 419.578 40.4735L413.684 35.2002C415.183 32.8737 417.174 31.0125 419.655 29.6167C422.137 28.1691 425.42 27.4453 429.504 27.4453C434.984 27.4453 439.146 28.6861 441.989 31.1676C444.833 33.6492 446.254 37.2164 446.254 41.8693V60.9462H450.287V68.8562H444.781ZM428.341 62.5748C430.564 62.5748 432.451 62.0836 434.002 61.1013C435.553 60.1191 436.328 58.6715 436.328 56.7586V51.4078H429.969C424.799 51.4078 422.214 53.0622 422.214 56.3709V57.6892C422.214 59.3436 422.731 60.5843 423.765 61.4115C424.851 62.187 426.376 62.5748 428.341 62.5748Z" fill="white"/>
<path d="M394.385 62.1047H393.997C393.635 63.1386 393.144 64.1209 392.523 65.0515C391.955 65.9304 391.205 66.7317 390.274 67.4555C389.396 68.1793 388.31 68.748 387.017 69.1616C385.777 69.5752 384.329 69.782 382.675 69.782C378.487 69.782 375.282 68.4119 373.059 65.6719C370.836 62.9319 369.724 59.0286 369.724 53.9621V28.3711H379.65V52.9539C379.65 55.7457 380.193 57.8912 381.279 59.3905C382.365 60.838 384.096 61.5618 386.475 61.5618C387.457 61.5618 388.413 61.4326 389.344 61.1741C390.326 60.9156 391.179 60.5278 391.903 60.0109C392.627 59.4422 393.221 58.7701 393.687 57.9946C394.152 57.1674 394.385 56.211 394.385 55.1253V28.3711H404.311V68.8514H394.385V62.1047Z" fill="white"/>
<path d="M349.59 62.1095H349.202C348.478 64.4359 347.108 66.2971 345.092 67.693C343.076 69.0888 340.724 69.7868 338.035 69.7868C332.917 69.7868 328.988 67.9515 326.248 64.2808C323.56 60.6102 322.215 55.3628 322.215 48.5385C322.215 41.7659 323.56 36.5702 326.248 32.9513C328.988 29.2806 332.917 27.4453 338.035 27.4453C340.724 27.4453 343.076 28.1432 345.092 29.5391C347.108 30.8833 348.478 32.7186 349.202 35.0451H349.59V28.3759H359.516V84.3659H349.59V62.1095ZM341.215 61.5666C343.593 61.5666 345.583 60.9979 347.186 59.8606C348.789 58.7232 349.59 57.0947 349.59 54.975V42.102C349.59 40.1374 348.789 38.5606 347.186 37.3715C345.583 36.1824 343.593 35.5879 341.215 35.5879C338.63 35.5879 336.536 36.4668 334.933 38.2245C333.382 39.9306 332.607 42.2312 332.607 45.1264V52.1057C332.607 55.0009 333.382 57.3015 334.933 59.0075C336.536 60.7136 338.63 61.5666 341.215 61.5666Z" fill="white"/>
<path d="M299.807 69.7868C295.929 69.7868 292.672 69.1405 290.036 67.8481C287.399 66.5039 285.072 64.6686 283.056 62.3421L289.105 56.4484C290.604 58.1545 292.233 59.4987 293.99 60.4809C295.8 61.4632 297.868 61.9544 300.194 61.9544C302.573 61.9544 304.279 61.5408 305.313 60.7136C306.398 59.8864 306.941 58.749 306.941 57.3015C306.941 56.1124 306.553 55.1818 305.778 54.5097C305.054 53.7859 303.787 53.2948 301.978 53.0363L297.945 52.4935C293.551 51.9248 290.191 50.684 287.864 48.7711C285.589 46.8066 284.452 43.9631 284.452 40.2408C284.452 38.2762 284.814 36.5185 285.538 34.9675C286.261 33.3648 287.295 32.0207 288.64 30.935C289.984 29.7976 291.586 28.9446 293.448 28.3759C295.361 27.7555 297.48 27.4453 299.807 27.4453C301.771 27.4453 303.503 27.6004 305.002 27.9106C306.553 28.1691 307.949 28.5827 309.19 29.1514C310.431 29.6684 311.568 30.3405 312.602 31.1676C313.636 31.9431 314.644 32.822 315.627 33.8043L309.81 39.6204C308.621 38.3796 307.2 37.3457 305.545 36.5185C303.891 35.6913 302.081 35.2777 300.117 35.2777C297.945 35.2777 296.369 35.6654 295.386 36.4409C294.456 37.2164 293.99 38.2245 293.99 39.4653C293.99 40.8095 294.378 41.8435 295.154 42.5673C295.981 43.2394 297.351 43.7305 299.264 44.0407L303.374 44.5835C312.111 45.8243 316.48 49.8051 316.48 56.526C316.48 58.4905 316.066 60.3 315.239 61.9544C314.463 63.557 313.352 64.9529 311.904 66.142C310.457 67.2794 308.699 68.1841 306.631 68.8562C304.615 69.4766 302.34 69.7868 299.807 69.7868Z" fill="white"/>
<path d="M241.726 68.8562V28.3759H251.652V35.1226H252.04C252.867 32.9513 254.16 31.1418 255.917 29.6942C257.727 28.1949 260.208 27.4453 263.362 27.4453C267.55 27.4453 270.755 28.8153 272.978 31.5554C275.201 34.2954 276.313 38.1987 276.313 43.2652V68.8562H266.386V44.2733C266.386 41.3782 265.869 39.2068 264.836 37.7593C263.802 36.3117 262.095 35.5879 259.717 35.5879C258.683 35.5879 257.675 35.743 256.693 36.0532C255.762 36.3117 254.909 36.7253 254.134 37.294C253.41 37.811 252.815 38.483 252.35 39.3102C251.885 40.0857 251.652 41.0163 251.652 42.102V68.8562H241.726Z" fill="white"/>
<path d="M175.013 28.3711H184.552L188.662 45.044L191.841 58.9252H192.151L195.874 45.044L200.604 28.3711H209.6L214.485 45.044L218.285 58.9252H218.595L221.775 45.044L225.807 28.3711H235.036L223.946 68.8514H213.245L208.049 51.0152L205.024 40.0034H204.792L201.845 51.0152L196.727 68.8514H186.18L175.013 28.3711Z" fill="white"/>
<path d="M152.778 69.7868C149.883 69.7868 147.272 69.2956 144.946 68.3133C142.671 67.3311 140.706 65.9093 139.052 64.0482C137.449 62.187 136.208 59.964 135.33 57.379C134.451 54.7424 134.011 51.7955 134.011 48.5385C134.011 45.2815 134.451 42.3605 135.33 39.7755C136.208 37.1906 137.449 34.9934 139.052 33.1839C140.706 31.3227 142.671 29.901 144.946 28.9187C147.272 27.9365 149.883 27.4453 152.778 27.4453C155.673 27.4453 158.284 27.9365 160.61 28.9187C162.937 29.901 164.901 31.3227 166.504 33.1839C168.158 34.9934 169.425 37.1906 170.304 39.7755C171.183 42.3605 171.622 45.2815 171.622 48.5385C171.622 51.7955 171.183 54.7424 170.304 57.379C169.425 59.964 168.158 62.187 166.504 64.0482C164.901 65.9093 162.937 67.3311 160.61 68.3133C158.284 69.2956 155.673 69.7868 152.778 69.7868ZM152.778 61.7993C155.415 61.7993 157.483 60.9979 158.982 59.3953C160.481 57.7926 161.231 55.4403 161.231 52.3384V44.8162C161.231 41.7659 160.481 39.4395 158.982 37.8368C157.483 36.2341 155.415 35.4328 152.778 35.4328C150.193 35.4328 148.151 36.2341 146.652 37.8368C145.152 39.4395 144.403 41.7659 144.403 44.8162V52.3384C144.403 55.4403 145.152 57.7926 146.652 59.3953C148.151 60.9979 150.193 61.7993 152.778 61.7993Z" fill="white"/>
<path d="M121.44 68.8549C118.028 68.8549 115.417 67.976 113.608 66.2182C111.85 64.4088 110.971 61.8497 110.971 58.5409V36.2845H105V28.3746H108.102C109.601 28.3746 110.609 28.0385 111.126 27.3665C111.695 26.6427 111.979 25.5828 111.979 24.187V17.2852H120.897V28.3746H129.195V36.2845H120.897V60.9449H128.575V68.8549H121.44Z" fill="white"/>
</svg>
